<?xml version="1.0" encoding="utf-8"?>
<!-- Generator: Adobe Illustrator 26.0.1, SVG Export Plug-In . SVG Version: 6.00 Build 0)  -->
<svg version="1.1" id="Layer_1" xmlns="http://www.w3.org/2000/svg" xmlns:xlink="http://www.w3.org/1999/xlink" x="0px" y="0px"
	 viewBox="0 0 1920 1080" style="enable-background:new 0 0 1920 1080;" xml:space="preserve">
<style type="text/css">
	.st0{fill:#FFFFFF;}
</style>
<g>
	<g>
		<path class="st0" d="M904,487c37.2,0,74.4,0,111.6,0c0,35,0,70,0,105c-37.2,0-74.4,0-111.6,0C904,557,904,522,904,487z
			 M956.45,566.48c17.79,0.36,32.84-14.38,33.21-32.52c0.36-17.87-14.22-32.82-32.42-33.23c-18-0.41-33.02,14.03-33.44,32.15
			C923.37,551.14,937.9,566.1,956.45,566.48z"/>
		<path d="M956.45,566.48c-18.54-0.38-33.08-15.33-32.65-33.6c0.42-18.13,15.44-32.56,33.44-32.15
			c18.2,0.42,32.77,15.36,32.42,33.23C989.29,552.09,974.24,566.84,956.45,566.48z M934.85,515.14
			c-10.26,11.39-8.86,29.82,2.97,40.11c12.19,10.6,29.85,8.01,37.14,0.07C961.62,541.96,948.29,528.61,934.85,515.14z
			 M978.43,551.92c9.53-9.74,8.68-28-1.7-38.29c-10.7-10.6-28.73-11.42-38.35-1.88C951.69,525.09,964.99,538.43,978.43,551.92z"/>
		<path class="st0" d="M934.85,515.14c13.44,13.47,26.77,26.82,40.11,40.18c-7.29,7.94-24.95,10.53-37.14-0.07
			C925.99,544.97,924.59,526.54,934.85,515.14z"/>
		<path class="st0" d="M978.43,551.92c-13.45-13.49-26.75-26.83-40.04-40.17c9.62-9.54,27.65-8.72,38.35,1.88
			C987.12,523.92,987.96,542.18,978.43,551.92z"/>
	</g>
</g>
</svg>
