<?xml version="1.0" encoding="utf-8"?>
<!-- Generator: Adobe Illustrator 26.0.1, SVG Export Plug-In . SVG Version: 6.00 Build 0)  -->
<svg version="1.1" id="Layer_1" xmlns="http://www.w3.org/2000/svg" xmlns:xlink="http://www.w3.org/1999/xlink" x="0px" y="0px"
	 viewBox="0 0 1920 1080" style="enable-background:new 0 0 1920 1080;" xml:space="preserve">
<g>
	<path d="M811.2,127.6c0,2.71-0.04,5.01,0.01,7.3c0.04,1.76-0.81,2.58-2.48,2.69c-0.5,0.03-1,0.06-1.5,0.07
		c-5.94,0.14-5.89,0.07-7.08-5.84c-1.01-5.03-0.03-4.35-5.17-4.36c-28.91-0.03-57.81,0.04-86.72-0.09
		c-3.11-0.01-4.37,1.06-4.54,3.93c-0.01,0.2-0.04,0.4-0.07,0.6c-0.97,5.61-3.65,7.3-9.16,5.48c-0.81-0.27-1.66-1.64-1.77-2.58
		c-0.26-2.26-0.08-4.58-0.08-6.79c-4.53-1.5-4.73-2.25-4.24-10.13c0.17-2.74,1.83-2.96,4.23-2.98c0-4.65,0-9.21,0-13.77
		c0-7.07,1.08-8.59,8-11c0-8.61,0-17.3,0-25.99c0-2.5-0.07-5.01,0.02-7.5c0.23-5.98,3.19-8.91,9.18-9.21c0.7-0.03,1.4,0,2.1-0.01
		c26.91-0.01,53.81-0.02,80.72-0.03c7.43,0,10.52,3.08,10.53,10.61c0.02,10.69,0,21.39,0,32.01c6.7,2.39,7.69,3.59,7.98,10.68
		c0.19,4.67,0.04,9.35,0.04,14.22c3.77-0.41,4.48,1.64,4.19,4.59c-0.11,1.09-0.12,2.21,0,3.3
		C815.76,125.74,814.89,127.7,811.2,127.6z M753.98,90.23c0-2.68-0.03-5.07,0.01-7.46c0.09-5.26,3.07-8.53,8.31-8.63
		c8.09-0.15,16.19-0.14,24.29,0.01c5.21,0.1,8.23,3.41,8.29,8.64c0.03,2.47,0.01,4.93,0.01,7.43c1.54,0,2.7,0,4.11,0
		c0-1.02,0-1.9,0-2.78c0-9.6,0-19.2,0-28.8c0-6.07-1.03-7.08-7.19-7.08c-26.29,0-52.58,0-78.86,0c-0.8,0-1.6-0.03-2.4,0.01
		c-4.41,0.22-5.63,1.45-5.65,5.91c-0.04,8.9-0.01,17.8-0.01,26.7c0,1.98,0,3.96,0,5.98c1.51,0,2.73,0,4.12,0c0-2.51-0.02-4.8,0-7.09
		c0.05-5.74,3.06-8.9,8.85-8.98c7.69-0.1,15.39-0.1,23.09,0c6.02,0.08,8.87,3.09,8.94,9.18c0.03,2.28,0,4.55,0,6.96
		C751.32,90.23,752.48,90.23,753.98,90.23z M807.03,114.88c0-4.93,0.01-9.61,0-14.29c-0.01-4.88-1.07-5.92-6.01-5.92
		c-32.7,0-65.41,0-98.11,0c-0.9,0-1.98-0.27-2.66,0.12c-1.2,0.69-3.01,1.76-3.06,2.75c-0.29,5.73-0.14,11.48-0.14,17.33
		C733.72,114.88,770.1,114.88,807.03,114.88z M692.91,122.79c39.5,0,78.73,0,118.16,0c-0.07-1.31-0.12-2.34-0.17-3.33
		c-39.51,0-78.68,0-117.99,0C692.91,120.59,692.91,121.55,692.91,122.79z M745.64,90.3c0-2.94,0.11-5.62-0.03-8.29
		c-0.12-2.35-1.54-3.62-3.92-3.63c-8.19-0.02-16.37-0.13-24.55,0.11c-1.3,0.04-3.46,1.55-3.66,2.65c-0.52,2.95-0.18,6.05-0.18,9.15
		C724.18,90.3,734.66,90.3,745.64,90.3z M790.64,90.21c0-2.75,0.04-5.33-0.01-7.9c-0.05-2.53-1.41-3.9-3.93-3.91
		c-8.19-0.03-16.38-0.03-24.56,0c-2.19,0.01-3.71,1.12-3.85,3.35c-0.17,2.76-0.04,5.54-0.04,8.46
		C769.06,90.21,779.61,90.21,790.64,90.21z M700.08,127.78c-3.27-0.35-3.62,0.05-3.21,3.57c0.07,0.63,0.66,1.19,1.01,1.79
		c0.5-0.47,1.25-0.86,1.44-1.44C699.72,130.5,699.83,129.21,700.08,127.78z M803.78,127.66c0.27,1.55,0.4,2.91,0.78,4.2
		c0.15,0.51,0.84,0.86,1.29,1.29c0.39-0.56,1.02-1.08,1.11-1.68c0.17-1.23,0.05-2.49,0.05-3.8
		C805.74,127.66,804.9,127.66,803.78,127.66z"/>
</g>
</svg>
