<?xml version="1.0" encoding="utf-8"?>
<!-- Generator: Adobe Illustrator 26.0.1, SVG Export Plug-In . SVG Version: 6.00 Build 0)  -->
<svg version="1.1" id="Layer_1" xmlns="http://www.w3.org/2000/svg" xmlns:xlink="http://www.w3.org/1999/xlink" x="0px" y="0px"
	 viewBox="0 0 1920 1080" style="enable-background:new 0 0 1920 1080;" xml:space="preserve">
<g>
	<path d="M988.63,557.74c-20.91,0-41.65,0-62.4,0c-0.83-3.38-0.63-6.28,2.39-8.38c4.07-2.83,5.18-6.68,4.91-11.59
		c-0.32-5.75-0.25-11.64,0.62-17.32c1.32-8.64,6.15-14.99,14.48-18.38c0.7-0.28,1.43-1.25,1.56-2.01c0.79-4.38,3.39-7.02,7.18-7.05
		c3.8-0.02,6.52,2.66,7.22,6.97c0.12,0.72,0.63,1.74,1.21,1.97c10.87,4.37,15.08,13.05,15.53,24.06c0.21,5.19,0.17,10.39,0,15.58
		c-0.07,2.22,0.56,3.84,2.24,5.19c0.85,0.69,1.48,1.66,2.37,2.29C988.99,551.25,989.44,554.18,988.63,557.74z M986.53,554.77
		c-1.11-1.48-1.6-2.61-2.46-3.21c-4.9-3.46-6.34-8.11-5.76-13.95c0.44-4.45,0.28-9-0.07-13.47c-0.67-8.52-4.25-15.46-12.51-18.88
		c-2.74-1.13-4.62-1.85-4.38-5.35c0.16-2.32-1.62-3.88-4.1-3.82c-2.34,0.06-3.58,1.6-3.91,3.82c-0.19,1.26-0.15,2.55-0.22,3.76
		c-12.04,4.63-16.61,11.07-16.72,23.42c-0.03,3.5-0.36,7.04,0.07,10.48c0.76,6-1.04,10.63-5.95,14.17c-0.8,0.57-1.19,1.7-2.07,3.03
		C948.02,554.77,966.77,554.77,986.53,554.77z"/>
	<path d="M966.15,558.88c1.27,5.56-4.25,10.41-8.73,10.32c-5.35-0.11-9.21-4.42-8.82-10.32
		C954.38,558.88,960.18,558.88,966.15,558.88z M951.7,561.85c1.29,3.06,3.36,4.35,5.99,4.21c2.42-0.14,4.43-1.35,5.24-4.21
		C959.17,561.85,955.66,561.85,951.7,561.85z"/>
</g>
</svg>
