<?xml version="1.0" encoding="utf-8"?>
<!-- Generator: Adobe Illustrator 26.0.1, SVG Export Plug-In . SVG Version: 6.00 Build 0)  -->
<svg version="1.1" id="Layer_1" xmlns="http://www.w3.org/2000/svg" xmlns:xlink="http://www.w3.org/1999/xlink" x="0px" y="0px"
	 viewBox="0 0 1920 1080" style="enable-background:new 0 0 1920 1080;" xml:space="preserve">
<g>
	<path d="M931.15,514.03c0.27-0.99,0.48-1.75,0.68-2.51c1.29-4.94,5.13-8.12,10.16-8.14c11.3-0.06,22.6-0.05,33.9,0
		c5.03,0.02,9.08,3.16,10.13,8.1c0.46,2.19,1.4,2.65,3.43,2.6c5.2-0.13,10.4-0.09,15.6-0.03c7.59,0.08,13.37,5.64,13.41,13.25
		c0.11,18.9,0.1,37.8,0,56.7c-0.04,7.31-6.04,13.07-13.29,13.07c-30.6,0.01-61.2,0.01-91.79-0.01c-8.02-0.01-13.79-5.76-13.8-13.8
		c-0.03-18.5-0.03-37,0-55.5c0.02-8.05,5.77-13.68,13.9-13.72C919.34,514.01,925.23,514.03,931.15,514.03z M958.98,590.95
		c14.89,0,29.78,0.01,44.68,0c5.92-0.01,8.76-2.66,8.78-8.49c0.06-18.09,0.06-36.18,0-54.27c-0.02-5.31-2.87-7.97-8.27-8
		c-6.3-0.02-12.59,0-18.89-0.01c-4.17,0-4.85-0.68-4.94-4.86c-0.1-4.62-1.31-5.85-5.93-5.86c-9.99-0.02-19.99-0.01-29.98,0
		c-5.54,0.01-6.31,0.78-6.51,6.39c-0.12,3.28-1.11,4.3-4.34,4.32c-6.4,0.03-12.79-0.01-19.19,0.01c-6.08,0.02-8.72,2.7-8.73,8.81
		c-0.01,17.69-0.01,35.38,0,53.07c0,6.29,2.61,8.88,8.95,8.88C929.4,590.95,944.19,590.95,958.98,590.95z"/>
	<path d="M1001.94,487.6c0,3.64-0.02,6.82,0.01,9.99c0.02,2.1-0.49,3.98-2.94,4.05c-2.61,0.08-3.26-1.82-3.26-4.07
		c0.01-3.17,0-6.34,0-9.97c-3.48,0-6.64-0.04-9.79,0.01c-2.23,0.04-4.16-0.45-4.2-3.09c-0.04-2.52,1.97-3.04,3.96-3.1
		c3.17-0.1,6.36-0.03,10.03-0.03c0-2.43,0-4.59,0-6.74c0-1.2-0.04-2.4,0.02-3.59c0.1-1.98,0.78-3.64,3.08-3.66
		c2.3-0.01,3.04,1.61,3.08,3.62c0.05,2.6,0.11,5.2,0,7.79c-0.08,1.91,0.56,2.71,2.55,2.62c2.59-0.12,5.19-0.1,7.78,0.03
		c1.9,0.1,3.73,0.76,3.71,3.07c-0.02,2.43-1.77,3.1-3.92,3.08C1008.86,487.59,1005.68,487.6,1001.94,487.6z"/>
	<path d="M958.11,533.36c13.97,0,25.48,10.84,25.52,24.05c0.04,13.07-11.65,24.06-25.56,24.03c-13.95-0.03-25.57-10.99-25.5-24.07
		C932.63,544.15,944.11,533.37,958.11,533.36z M957.95,575.33c11.58,0.02,20.84-9.46,19.42-19.88c-1.07-7.84-7.07-13.97-15.25-15.57
		c-8.39-1.65-17.27,2.17-21.16,9.09C934.23,560.93,943.5,575.3,957.95,575.33z"/>
	<path d="M999.55,538.77c-3.17,0.07-5.75-2.4-5.79-5.54c-0.04-3.09,2.53-5.63,5.71-5.63c2.77,0,5.21,2.49,5.29,5.39
		C1004.83,536.07,1002.46,538.7,999.55,538.77z"/>
</g>
</svg>
