<?xml version="1.0" encoding="utf-8"?>
<!-- Generator: Adobe Illustrator 26.0.1, SVG Export Plug-In . SVG Version: 6.00 Build 0)  -->
<svg version="1.1" id="Layer_1" xmlns="http://www.w3.org/2000/svg" xmlns:xlink="http://www.w3.org/1999/xlink" x="0px" y="0px"
	 viewBox="0 0 1920 1080" style="enable-background:new 0 0 1920 1080;" xml:space="preserve">
<style type="text/css">
	.st0{fill:#FFFFFF;}
</style>
<g>
	<path class="st0" d="M1028.8,600.8c-45.6,0-91.2,0-136.8,0c0-40.6,0-81.2,0-121.8c45.6,0,91.2,0,136.8,0
		C1028.8,519.6,1028.8,560.2,1028.8,600.8z M955.74,565.31c6.79,0,13.59,0.05,20.38-0.02c5.44-0.06,8.32-2.95,8.42-8.34
		c0.07-3.7,0.14-7.4-0.04-11.09c-0.05-1.04-0.97-2.04-1.48-3.05c-0.5,0.96-1.37,1.91-1.42,2.9c-0.18,3.39-0.06,6.79-0.08,10.19
		c-0.02,4.85-1.57,6.39-6.49,6.4c-12.89,0.01-25.78,0-38.67-0.01c-4.56,0-6.16-1.5-6.18-6.1c-0.05-12.29-0.04-24.58,0-36.87
		c0.01-4.04,1.59-5.48,5.74-5.5c3.7-0.02,7.4,0.08,11.09-0.08c0.85-0.04,1.66-0.96,2.49-1.47c-0.84-0.49-1.66-1.36-2.52-1.4
		c-3.79-0.15-7.59-0.07-11.39-0.07c-5.55,0-8.42,2.67-8.45,8.15c-0.07,12.39-0.1,24.78-0.03,37.17c0.04,6.54,2.8,9.15,9.44,9.19
		C942.95,565.34,949.34,565.31,955.74,565.31z M978.25,505.32c-1.2,0.83-2.99,1.73-4.35,3.07c-7.54,7.41-14.71,15.22-22.56,22.29
		c-4.72,4.25-5.91,9.67-7.4,15.17c-0.16,0.57,0.97,2.12,1.16,2.07c3.95-1.17,8.79-1.47,11.6-4c9.48-8.53,18.23-17.87,27.26-26.9
		c1.79-1.79,2.6-3.96,1.49-6.26C984.15,508.1,982.05,506.12,978.25,505.32z"/>
	<path d="M955.74,565.31c-6.4,0-12.79,0.02-19.18-0.01c-6.64-0.03-9.41-2.65-9.44-9.19c-0.07-12.39-0.04-24.78,0.03-37.17
		c0.03-5.48,2.9-8.15,8.45-8.15c3.8,0,7.6-0.09,11.39,0.07c0.86,0.04,1.68,0.91,2.52,1.4c-0.83,0.51-1.64,1.44-2.49,1.47
		c-3.69,0.17-7.39,0.06-11.09,0.08c-4.15,0.03-5.72,1.47-5.74,5.5c-0.04,12.29-0.05,24.58,0,36.87c0.02,4.59,1.62,6.09,6.18,6.1
		c12.89,0.01,25.78,0.02,38.67,0.01c4.92,0,6.47-1.55,6.49-6.4c0.02-3.4-0.1-6.8,0.08-10.19c0.05-0.99,0.92-1.93,1.42-2.9
		c0.52,1.02,1.43,2.02,1.48,3.05c0.18,3.69,0.1,7.39,0.04,11.09c-0.1,5.39-2.98,8.28-8.42,8.34
		C969.33,565.37,962.53,565.31,955.74,565.31z"/>
	<path d="M978.25,505.32c3.8,0.8,5.9,2.78,7.19,5.45c1.11,2.3,0.3,4.47-1.49,6.26c-9.03,9.03-17.78,18.36-27.26,26.9
		c-2.81,2.53-7.65,2.83-11.6,4c-0.19,0.06-1.31-1.5-1.16-2.07c1.49-5.51,2.69-10.93,7.4-15.17c7.85-7.07,15.02-14.88,22.56-22.29
		C975.25,507.06,977.04,506.16,978.25,505.32z M977.49,519.75c-1.84-1.88-3.76-3.85-5.47-5.6c-7.47,7.4-14.86,14.73-22.12,21.93
		c1.81,1.91,3.7,3.9,5.52,5.81C962.75,534.53,970.05,527.21,977.49,519.75z M973.95,511.6c2.05,2.16,3.93,4.15,5.82,6.14
		c4.39-3.54,4.89-5.08,2.46-7.68C979.15,506.78,977.98,507.02,973.95,511.6z M952.93,543.62c-1.53-1.68-2.93-3.2-4.59-5.02
		c-0.67,2.3-1.24,4.23-1.97,6.73C948.94,544.67,950.97,544.14,952.93,543.62z"/>
	<path class="st0" d="M977.49,519.75c-7.44,7.46-14.74,14.78-22.08,22.14c-1.81-1.91-3.7-3.9-5.52-5.81
		c7.27-7.2,14.66-14.53,22.12-21.93C973.73,515.9,975.65,517.86,977.49,519.75z"/>
	<path class="st0" d="M973.95,511.6c4.04-4.58,5.2-4.82,8.28-1.54c2.44,2.6,1.93,4.14-2.46,7.68
		C977.88,515.75,976,513.76,973.95,511.6z"/>
	<path class="st0" d="M952.93,543.62c-1.96,0.51-3.99,1.04-6.55,1.71c0.73-2.5,1.3-4.44,1.97-6.73
		C950,540.42,951.4,541.95,952.93,543.62z"/>
</g>
</svg>
