<?xml version="1.0" encoding="utf-8"?>
<!-- Generator: Adobe Illustrator 26.0.1, SVG Export Plug-In . SVG Version: 6.00 Build 0)  -->
<svg version="1.1" id="Layer_1" xmlns="http://www.w3.org/2000/svg" xmlns:xlink="http://www.w3.org/1999/xlink" x="0px" y="0px"
	 viewBox="0 0 1920 1080" style="enable-background:new 0 0 1920 1080;" xml:space="preserve">
<style type="text/css">
	.st0{fill:#FFFFFF;}
</style>
<g>
	<path class="st0" d="M1039.4,624.8c-52.78,0-105.57,0-158.4,0c0-56.56,0-113.14,0-169.8c52.77,0,105.58,0,158.4,0
		C1039.4,511.58,1039.4,568.18,1039.4,624.8z M979.17,489.03c-0.1-0.93-0.18-1.42-0.21-1.9c-0.47-7.92-3.98-11.2-12-11.2
		c-6.2,0-12.4,0-18.6,0c-7.91,0-11.25,3.05-11.76,11.01c-0.12,1.82-0.86,2.13-2.41,2.11c-3.6-0.04-7.2-0.02-10.8,0.08
		c-4.58,0.12-7.84,2.67-9.03,6.92c-1.17,4.17,0.44,8.68,4.39,10.79c2.07,1.11,2.45,2.42,2.44,4.5c-0.06,19.11,0.12,38.22-0.11,57.33
		c-0.1,8.61,5.23,15.18,14.72,14.92c14.69-0.39,29.4-0.09,44.11-0.12c1.69,0,3.43-0.05,5.05-0.47c6.02-1.59,9.39-6.64,9.4-13.98
		c0.03-19.31-0.02-38.62,0.07-57.93c0.01-1.26,0.64-3.02,1.59-3.69c4.53-3.17,6.3-6.68,5.09-11.08c-1.33-4.84-4.63-7.21-10.34-7.29
		C987,488.98,983.22,489.03,979.17,489.03z"/>
	<path d="M979.17,489.03c4.04,0,7.83-0.04,11.61,0.01c5.7,0.08,9.01,2.45,10.34,7.29c1.21,4.4-0.56,7.91-5.09,11.08
		c-0.95,0.66-1.58,2.43-1.59,3.69c-0.1,19.31-0.05,38.62-0.07,57.93c-0.01,7.35-3.38,12.39-9.4,13.98
		c-1.61,0.43-3.36,0.47-5.05,0.47c-14.7,0.03-29.42-0.27-44.11,0.12c-9.49,0.25-14.82-6.31-14.72-14.92
		c0.22-19.11,0.04-38.22,0.11-57.33c0.01-2.08-0.37-3.4-2.44-4.5c-3.95-2.11-5.57-6.62-4.39-10.79c1.19-4.25,4.45-6.8,9.03-6.92
		c3.6-0.1,7.2-0.13,10.8-0.08c1.55,0.02,2.29-0.29,2.41-2.11c0.51-7.96,3.85-11.01,11.76-11.01c6.2,0,12.4,0,18.6,0
		c8.01,0,11.53,3.28,12,11.2C979,487.61,979.07,488.09,979.17,489.03z M926.2,508.43c0,1.28,0,2.27,0,3.25
		c0,18.09,0,36.19,0.01,54.28c0,1.6-0.01,3.21,0.18,4.79c0.61,5.08,3.42,7.76,8.54,7.79c15.39,0.08,30.78,0.07,46.17,0.01
		c4.43-0.02,7.28-2.67,7.9-7.07c0.17-1.18,0.22-2.39,0.22-3.59c0.01-18.79,0.01-37.59,0-56.38c0-0.97-0.1-1.94-0.16-3.08
		C968.12,508.43,947.38,508.43,926.2,508.43z M957.45,494.05c-10.29,0-20.59,0-30.88,0c-1.1,0-2.22-0.09-3.29,0.06
		c-2.34,0.34-3.81,1.66-4.01,4.12c-0.2,2.52,1.12,3.99,3.45,4.5c1.25,0.28,2.58,0.29,3.87,0.29c21.09,0.02,42.17,0.01,63.26,0.01
		c0.8,0,1.6,0.03,2.4-0.05c2.28-0.24,3.69-1.51,3.95-3.78c0.25-2.21-0.6-3.99-2.83-4.7c-1.11-0.35-2.35-0.43-3.53-0.43
		C979.04,494.04,968.25,494.05,957.45,494.05z M941.76,488.51c10.8,0,21.39,0,31.96,0c0.4-5.8-1.25-7.66-6.63-7.67
		c-6.18-0.02-12.36-0.01-18.54,0C942.94,480.85,941.38,482.58,941.76,488.51z"/>
	<path class="st0" d="M926.2,508.43c21.18,0,41.93,0,62.87,0c0.06,1.14,0.16,2.11,0.16,3.08c0.01,18.79,0.01,37.59,0,56.38
		c0,1.2-0.05,2.4-0.22,3.59c-0.63,4.4-3.48,7.05-7.9,7.07c-15.39,0.06-30.78,0.07-46.17-0.01c-5.13-0.03-7.93-2.71-8.54-7.79
		c-0.19-1.58-0.18-3.19-0.18-4.79c-0.01-18.09-0.01-36.19-0.01-54.28C926.2,510.7,926.2,509.72,926.2,508.43z M975.2,541.33
		c0-7.2,0-14.4,0-21.6c0-0.8,0.23-1.76-0.12-2.36c-0.54-0.92-1.63-2.32-2.26-2.21c-0.98,0.18-2.02,1.3-2.56,2.29
		c-0.43,0.78-0.17,1.95-0.18,2.95c-0.01,12.9-0.02,25.81-0.02,38.71c0,2-0.21,4.05,0.19,5.98c0.2,0.97,1.57,1.69,2.4,2.52
		c0.84-0.86,1.84-1.61,2.44-2.6c0.36-0.59,0.1-1.56,0.1-2.36C975.2,555.53,975.2,548.43,975.2,541.33z M960.26,541.36
		c0-1.7,0-3.4,0-5.1c0-6.1,0-12.2-0.02-18.3c0-1.7-0.69-3.26-2.54-2.87c-0.95,0.2-1.65,1.77-2.38,2.79
		c-0.19,0.27-0.04,0.78-0.04,1.18c-0.01,14.8-0.01,29.6-0.03,44.39c0,1.89,0.06,4,2.44,4.04c2.36,0.04,2.58-1.98,2.57-3.93
		C960.23,556.16,960.26,548.76,960.26,541.36z M940.34,541.35c0,0,0.01,0,0.01,0c0,7.6-0.03,15.2,0.02,22.81
		c0.02,2.59,1.77,4.27,3.3,3.13c0.96-0.71,1.58-2.47,1.59-3.77c0.11-14.9,0.08-29.81,0.09-44.71c0-1.91-0.12-3.9-2.66-3.78
		c-2.32,0.11-2.34,2.06-2.34,3.82C940.34,526.35,940.34,533.85,940.34,541.35z"/>
	<path class="st0" d="M957.45,494.05c10.79,0,21.59-0.01,32.38,0.02c1.18,0,2.42,0.08,3.53,0.43c2.23,0.71,3.08,2.49,2.83,4.7
		c-0.25,2.27-1.67,3.55-3.95,3.78c-0.79,0.08-1.6,0.05-2.4,0.05c-21.09,0-42.17,0.01-63.26-0.01c-1.29,0-2.62-0.01-3.87-0.29
		c-2.33-0.52-3.66-1.98-3.45-4.5c0.2-2.46,1.67-3.77,4.01-4.12c1.08-0.16,2.19-0.06,3.29-0.06
		C936.87,494.05,947.16,494.05,957.45,494.05z"/>
	<path class="st0" d="M941.76,488.51c-0.38-5.93,1.18-7.66,6.79-7.67c6.18-0.01,12.36-0.02,18.54,0c5.38,0.02,7.03,1.87,6.63,7.67
		C963.15,488.51,952.56,488.51,941.76,488.51z"/>
	<path d="M975.2,541.33c0,7.1,0,14.2,0,21.3c0,0.8,0.26,1.77-0.1,2.36c-0.6,1-1.61,1.75-2.44,2.6c-0.84-0.83-2.2-1.56-2.4-2.52
		c-0.4-1.92-0.19-3.98-0.19-5.98c0-12.9,0-25.81,0.02-38.71c0-1-0.25-2.17,0.18-2.95c0.54-0.98,1.58-2.11,2.56-2.29
		c0.62-0.11,1.71,1.29,2.26,2.21c0.36,0.6,0.12,1.56,0.12,2.36C975.2,526.92,975.2,534.13,975.2,541.33z"/>
	<path d="M960.26,541.36c0,7.4-0.02,14.8,0.01,22.2c0.01,1.95-0.21,3.97-2.57,3.93c-2.38-0.04-2.45-2.14-2.44-4.04
		c0.02-14.8,0.02-29.6,0.03-44.39c0-0.4-0.15-0.91,0.04-1.18c0.72-1.02,1.42-2.58,2.38-2.79c1.85-0.39,2.53,1.17,2.54,2.87
		c0.02,6.1,0.01,12.2,0.02,18.3C960.26,537.96,960.26,539.66,960.26,541.36z"/>
	<path d="M940.34,541.35c0-7.5,0-15,0-22.51c0-1.75,0.03-3.71,2.34-3.82c2.54-0.12,2.66,1.88,2.66,3.78
		c-0.01,14.9,0.02,29.81-0.09,44.71c-0.01,1.29-0.63,3.05-1.59,3.77c-1.53,1.14-3.28-0.54-3.3-3.13c-0.05-7.6-0.02-15.2-0.02-22.81
		C940.35,541.35,940.35,541.35,940.34,541.35z"/>
</g>
</svg>
